#tb 0: 250000/1585341
#media_type 0: video
#codec_id 0: rawvideo
#dimensions 0: 320x200
#sar 0: 0/1
0,          0,          0,        1,   192000, 0xe869dc94
0,          1,          1,        1,   192000, 0x742932f2
0,          2,          2,        1,   192000, 0x742932f2
0,          3,          3,        1,   192000, 0x742932f2
0,          4,          4,        1,   192000, 0x742932f2
0,          5,          5,        1,   192000, 0x742932f2
0,          6,          6,        1,   192000, 0x742932f2
0,          7,          7,        1,   192000, 0x742932f2
0,          8,          8,        1,   192000, 0x742932f2
0,          9,          9,        1,   192000, 0x742932f2
0,         10,         10,        1,   192000, 0x742932f2
0,         11,         11,        1,   192000, 0x742932f2
0,         12,         12,        1,   192000, 0x742932f2
0,         13,         13,        1,   192000, 0xb718e72e
0,         14,         14,        1,   192000, 0xb718e72e
0,         15,         15,        1,   192000, 0xb718e72e
0,         16,         16,        1,   192000, 0xb718e72e
0,         17,         17,        1,   192000, 0x7507f946
0,         18,         18,        1,   192000, 0x7507f946
0,         19,         19,        1,   192000, 0x7507f946
0,         20,         20,        1,   192000, 0x7507f946
0,         21,         21,        1,   192000, 0x7507f946
0,         22,         22,        1,   192000, 0xe620321c
0,         23,         23,        1,   192000, 0xe620321c
0,         24,         24,        1,   192000, 0xe620321c
0,         25,         25,        1,   192000, 0xe620321c
0,         26,         26,        1,   192000, 0x9b5f410d
0,         27,         27,        1,   192000, 0x9b5f410d
0,         28,         28,        1,   192000, 0x9b5f410d
0,         29,         29,        1,   192000, 0x9b5f410d
0,         30,         30,        1,   192000, 0x9b5f410d
0,         31,         31,        1,   192000, 0xea2c3519
0,         32,         32,        1,   192000, 0xea2c3519
0,         33,         33,        1,   192000, 0xea2c3519
0,         34,         34,        1,   192000, 0xea2c3519
0,         35,         35,        1,   192000, 0x1acb0549
0,         36,         36,        1,   192000, 0x1acb0549
0,         37,         37,        1,   192000, 0x1acb0549
0,         38,         38,        1,   192000, 0x1acb0549
0,         39,         39,        1,   192000, 0x1acb0549
0,         40,         40,        1,   192000, 0x3a064a04
0,         41,         41,        1,   192000, 0x3a064a04
0,         42,         42,        1,   192000, 0x3a064a04
0,         43,         43,        1,   192000, 0x3a064a04
0,         44,         44,        1,   192000, 0xcede321c
0,         45,         45,        1,   192000, 0xcede321c
0,         46,         46,        1,   192000, 0xcede321c
0,         47,         47,        1,   192000, 0xcede321c
0,         48,         48,        1,   192000, 0xcede321c
0,         49,         49,        1,   192000, 0xef4988c5
0,         50,         50,        1,   192000, 0xef4988c5
0,         51,         51,        1,   192000, 0xef4988c5
0,         52,         52,        1,   192000, 0xef4988c5
0,         53,         53,        1,   192000, 0x1fc84707
0,         54,         54,        1,   192000, 0x1fc84707
0,         55,         55,        1,   192000, 0x1fc84707
0,         56,         56,        1,   192000, 0x1fc84707
0,         57,         57,        1,   192000, 0x1fc84707
0,         58,         58,        1,   192000, 0xbabd4a04
0,         59,         59,        1,   192000, 0xbabd4a04
0,         60,         60,        1,   192000, 0xbabd4a04
0,         61,         61,        1,   192000, 0xbabd4a04
0,         62,         62,        1,   192000, 0x649b3816
0,         63,         63,        1,   192000, 0x649b3816
0,         64,         64,        1,   192000, 0x649b3816
0,         65,         65,        1,   192000, 0x649b3816
0,         66,         66,        1,   192000, 0x649b3816
0,         67,         67,        1,   192000, 0x206b3519
0,         68,         68,        1,   192000, 0x206b3519
0,         69,         69,        1,   192000, 0x206b3519
0,         70,         70,        1,   192000, 0x206b3519
0,         71,         71,        1,   192000, 0x206b3519
0,         72,         72,        1,   192000, 0x25982f1f
0,         73,         73,        1,   192000, 0x25982f1f
0,         74,         74,        1,   192000, 0x25982f1f
0,         75,         75,        1,   192000, 0x25982f1f
0,         76,         76,        1,   192000, 0xde0e202e
0,         77,         77,        1,   192000, 0xced09fa0
0,         78,         78,        1,   192000, 0x3b4f84bb
0,         79,         79,        1,   192000, 0xa09c57e8
0,         80,         80,        1,   192000, 0xf3dd75ca
0,         81,         81,        1,   192000, 0x4d4ab788
0,         82,         82,        1,   192000, 0x4ac67bc4
0,         83,         83,        1,   192000, 0xd61057e8
0,         84,         84,        1,   192000, 0x03bc251b
0,         85,         85,        1,   192000, 0xd263cb66
0,         86,         86,        1,   192000, 0xe3dddd54
0,         87,         87,        1,   192000, 0x460cf839
0,         88,         88,        1,   192000, 0xbae1043c
0,         89,         89,        1,   192000, 0xe6435de2
0,         90,         90,        1,   192000, 0x340e0d33
0,         91,         91,        1,   192000, 0x9acd3d03
0,         92,         92,        1,   192000, 0x1d346cd3
0,         93,         93,        1,   192000, 0xdabe221e
0,         94,         94,        1,   192000, 0xeb4b310f
0,         95,         95,        1,   192000, 0xec8f2e12
0,         96,         96,        1,   192000, 0xe96fcb66
0,         97,         97,        1,   192000, 0x3ec1b081
0,         98,         98,        1,   192000, 0xb72fdd54
0,         99,         99,        1,   192000, 0xced40a36
0,        100,        100,        1,   192000, 0x56171c24
0,        101,        101,        1,   192000, 0xc9f7dd54
0,        102,        102,        1,   192000, 0x0eeff839
0,        103,        103,        1,   192000, 0x295c1927
0,        104,        104,        1,   192000, 0xdde00739
0,        105,        105,        1,   192000, 0x51903a06
0,        106,        106,        1,   192000, 0xe16a84bb
0,        107,        107,        1,   192000, 0xf5b248f7
0,        108,        108,        1,   192000, 0x054769d6
0,        109,        109,        1,   192000, 0x9d327ec1
0,        110,        110,        1,   192000, 0x94470d33
0,        111,        111,        1,   192000, 0x9671fb36
0,        112,        112,        1,   192000, 0x0853013f
0,        113,        113,        1,   192000, 0x0844221e
0,        114,        114,        1,   192000, 0x9e5972cd
0,        115,        115,        1,   192000, 0xf7ce45fa
0,        116,        116,        1,   192000, 0xe9d569d6
0,        117,        117,        1,   192000, 0xabb05de2
0,        118,        118,        1,   192000, 0x54d5043c
0,        119,        119,        1,   192000, 0x00000000
0,        120,        120,        1,   192000, 0x00000000
0,        121,        121,        1,   192000, 0x00000000
0,        122,        122,        1,   192000, 0x00000000
0,        123,        123,        1,   192000, 0x00000000
0,        124,        124,        1,   192000, 0x00000000
0,        125,        125,        1,   192000, 0x00000000
0,        126,        126,        1,   192000, 0x00000000
0,        127,        127,        1,   192000, 0x00000000
0,        128,        128,        1,   192000, 0xd6050414
0,        129,        129,        1,   192000, 0xf9f90594
0,        130,        130,        1,   192000, 0xa6220704
0,        131,        131,        1,   192000, 0x54570858
0,        132,        132,        1,   192000, 0xd81109ac
0,        133,        133,        1,   192000, 0xc0540afc
0,        134,        134,        1,   192000, 0x83ee0c20
0,        135,        135,        1,   192000, 0x2a810d3c
0,        136,        136,        1,   192000, 0xb3a71844
0,        137,        137,        1,   192000, 0xd4ff1c7c
0,        138,        138,        1,   192000, 0x92b21fdc
0,        139,        139,        1,   192000, 0x03912364
0,        140,        140,        1,   192000, 0x65c9262c
0,        141,        141,        1,   192000, 0xf2e5290c
0,        142,        142,        1,   192000, 0xc8cc2b4c
0,        143,        143,        1,   192000, 0x272a2f1c
0,        144,        144,        1,   192000, 0xa672313c
0,        145,        145,        1,   192000, 0xab01331c
0,        146,        146,        1,   192000, 0x92643458
0,        147,        147,        1,   192000, 0x9a943548
0,        148,        148,        1,   192000, 0x3eb735ac
0,        149,        149,        1,   192000, 0x3eb735ac
0,        150,        150,        1,   192000, 0x3eb735ac
0,        151,        151,        1,   192000, 0x3eb735ac
0,        152,        152,        1,   192000, 0x3eb735ac
0,        153,        153,        1,   192000, 0x3eb735ac
0,        154,        154,        1,   192000, 0x3eb735ac
0,        155,        155,        1,   192000, 0x3eb735ac
0,        156,        156,        1,   192000, 0x3eb735ac
0,        157,        157,        1,   192000, 0x3eb735ac
0,        158,        158,        1,   192000, 0x3eb735ac
